# xmcd
#
# Track frame offsets:
# 150
# 15390
# 30672
# 49122
# 66755
# 87257
# 100615
# 119945
# 134297
# 147970
# 163632
# 179040
# 195217
# 214092
# 232875
# 247277
# 260030
# 276475
# 290297
# 309392
#
# Disc length: 4328 seconds
#
#
# Revision: 0
# Processed by: cddbd v1.5.1PL2 Copyright (c) Steve Scherf et al.
# Submitted via: FreeRIP 2.944 
#
DISCID=2a10e614
DTITLE=Nelson Ned - 20 anos de sucessos vol.2
DYEAR=1900
DGENRE=Other
TTITLE0=todo passara
TTITLE1=Yo necessito conversar con dios
TTITLE2=jurame
TTITLE3=noche de ronda
TTITLE4=si las flores pudieram hablar
TTITLE5=mi sangre latino
TTITLE6=queien eres tu
TTITLE7=la gitana
TTITLE8=dejeme se estoy llorando
TTITLE9=todas las rosas del mundo
TTITLE10=el preso nº 9
TTITLE11=yo también soy sentimental
TTITLE12=mi manera de amar
TTITLE13=feliz cumpleaños
TTITLE14=taria todo si estuvieras aqui
TTITLE15=tu me abandonaste
TTITLE16=canción popular
TTITLE17=a pesar de todo
TTITLE18=si es preciso
TTITLE19=la biblia
EXTD=
EXTT0=
EXTT1=
EXTT2=
EXTT3=
EXTT4=
EXTT5=
EXTT6=
EXTT7=
EXTT8=
EXTT9=
EXTT10=
EXTT11=
EXTT12=
EXTT13=
EXTT14=
EXTT15=
EXTT16=
EXTT17=
EXTT18=
EXTT19=
PLAYORDER=
